# xmcd CD database file
#
# Track frame offsets:
#	150
#	23596
#	39448
#	62160
#	83156
#	99568
#	115503
#	134675
#	151287
#	165992
#	189647
#	219178
#
# Disc length: 3143 seconds
#
# Revision: 0
# Processed by: cddbd v1.5.2PL0 Copyright (c) Steve Scherf et al.
# Submitted via: CDex 1.70beta2
#
DISCID=910c450c
DTITLE=Blue Foundation - Life of a ghost
DYEAR=2007
DGENRE=New Age
TTITLE0=Stuck in a hard place
TTITLE1=Enemy
TTITLE2=Eyes on fire
TTITLE3=Distant dreams
TTITLE4=Little by little
TTITLE5=Stained
TTITLE6=Ghost
TTITLE7=Talk to me
TTITLE8=Empty wall
TTITLE9=Hero across the sky
TTITLE10=Watch you sleeping
TTITLE11=Equilibrium
EXTD=YEAR: 2007
EXTT0=
EXTT1=
EXTT2=
EXTT3=
EXTT4=
EXTT5=
EXTT6=
EXTT7=
EXTT8=
EXTT9=
EXTT10=
EXTT11=
PLAYORDER=
